<?xml version="1.0" encoding="UTF-8" standalone="no"?>
<!-- Created with Inkscape (http://www.inkscape.org/) -->

<svg
   xmlns:dc="http://purl.org/dc/elements/1.1/"
   xmlns:cc="http://creativecommons.org/ns#"
   xmlns:rdf="http://www.w3.org/1999/02/22-rdf-syntax-ns#"
   xmlns:svg="http://www.w3.org/2000/svg"
   xmlns="http://www.w3.org/2000/svg"
   xmlns:sodipodi="http://sodipodi.sourceforge.net/DTD/sodipodi-0.dtd"
   xmlns:inkscape="http://www.inkscape.org/namespaces/inkscape"
   sodipodi:docname="bookingcare.svg"
   viewBox="0 0 256 256"
   height="256"
   width="256"
   id="svg66"
   version="1.1"
   inkscape:version="0.92.3 (2405546, 2018-03-11)">
  <metadata
     id="metadata72">
    <rdf:RDF>
      <cc:Work
         rdf:about="">
        <dc:format>image/svg+xml</dc:format>
        <dc:type
           rdf:resource="http://purl.org/dc/dcmitype/StillImage" />
        <dc:title></dc:title>
      </cc:Work>
    </rdf:RDF>
  </metadata>
  <defs
     id="defs70" />
  <sodipodi:namedview
     inkscape:current-layer="g4910"
     inkscape:window-maximized="1"
     inkscape:window-y="27"
     inkscape:window-x="67"
     inkscape:cy="118.21924"
     inkscape:cx="298.6914"
     inkscape:zoom="1.2021484"
     showgrid="false"
     id="namedview68"
     inkscape:window-height="1025"
     inkscape:window-width="1853"
     inkscape:pageshadow="2"
     inkscape:pageopacity="0"
     guidetolerance="10"
     gridtolerance="10"
     objecttolerance="10"
     borderopacity="1"
     bordercolor="#666666"
     pagecolor="#ffffff"
     inkscape:object-paths="true"
     inkscape:snap-nodes="true"
     inkscape:snap-intersection-paths="true"
     inkscape:snap-smooth-nodes="true"
     inkscape:object-nodes="false"
     showguides="true"
     showborder="true"
     borderlayer="false"
     inkscape:showpageshadow="true"
     inkscape:guide-bbox="true"
     fit-margin-top="0"
     fit-margin-left="0"
     fit-margin-right="0"
     fit-margin-bottom="0">
    <inkscape:grid
       type="xygrid"
       id="grid4901"
       originx="-33.212704"
       originy="-671.75402" />
    <sodipodi:guide
       position="-33.212704,-671.75401"
       orientation="0,382.66666"
       id="guide4912"
       inkscape:locked="false" />
    <sodipodi:guide
       position="349.45395,-671.75401"
       orientation="-317.33334,0"
       id="guide4914"
       inkscape:locked="false" />
    <sodipodi:guide
       position="349.45395,-354.42067"
       orientation="0,-382.66666"
       id="guide4916"
       inkscape:locked="false" />
    <sodipodi:guide
       position="-33.212704,-354.42067"
       orientation="317.33334,0"
       id="guide4918"
       inkscape:locked="false" />
    <sodipodi:guide
       position="-0.8280041,-11.816554"
       orientation="1,0"
       id="guide4535"
       inkscape:locked="false" />
    <sodipodi:guide
       position="959.26942,-181.70392"
       orientation="1,0"
       id="guide4537"
       inkscape:locked="false" />
  </sodipodi:namedview>
  <g
     id="g4910"
     transform="matrix(2.5214485,0,0,2.5214485,-3.0577741,152.15616)">
    <path
       style="fill:#ffffff;fill-opacity:1;stroke:none;stroke-width:0.01264613;stroke-linejoin:round;stroke-miterlimit:4;stroke-dasharray:none;stroke-opacity:1;paint-order:markers stroke fill"
       d="m 55.604026,-48.133861 c 0.04277,-1.35885 -0.07848,-2.744033 0.163518,-4.08401 0.363267,-1.376473 0.662053,-2.830877 1.55384,-3.979608 1.278763,-2.185234 3.818164,-3.196603 6.171832,-3.748777 3.796612,-0.858669 8.070349,-0.390318 11.240127,1.999886 1.586069,1.241386 2.393399,3.170385 2.949626,5.045747 0.09923,2.419655 0.03795,4.846114 0.02571,7.268093 -0.03802,0.606284 0.179568,1.700522 -0.775075,1.228119 -3.313135,-0.458537 -6.650257,-0.763421 -9.988691,-0.945064 -3.795146,0.17034 -7.544523,0.902004 -11.340896,1.0474 0,-1.277263 0,-2.554524 0,-3.831786 z m 12.020103,-0.787308 c 0.616237,-0.305945 0.30031,-1.125651 0.373103,-1.688188 -0.09189,-0.423152 0.05211,-0.618577 0.491614,-0.528716 0.531668,-0.01872 1.063333,-0.03743 1.594997,-0.05615 -0.01171,-0.672362 0.187174,-1.383806 -0.05244,-2.024946 -0.561473,-0.34385 -1.282727,-0.172594 -1.920471,-0.249454 -0.14442,-0.358513 -0.03705,-0.964028 -0.11398,-1.395883 -0.0053,-1.028104 -1.836737,-0.887736 -2.338159,-0.367129 -0.11114,0.599934 -0.04516,1.216652 -0.0642,1.824339 -0.631339,0.02432 -1.276138,-0.06302 -1.895786,0.07549 -0.480117,0.470059 -0.167036,1.247529 -0.203588,1.865463 -0.100876,0.463954 0.496743,0.221204 0.777499,0.299041 0.440625,0.01551 0.88125,0.03102 1.321875,0.04653 0.03903,0.685256 -0.10468,1.406962 0.131625,2.059919 0.484823,0.460176 1.325456,0.378537 1.897906,0.139678 z"
       id="path4885"
       inkscape:connector-curvature="0" />
    <path
       sodipodi:nodetypes="ccccccccscc"
       inkscape:connector-curvature="0"
       id="path4889"
       d="m 18.487635,-2.975918 c -0.949525,-0.31746 -1.549708,-0.730439 -2.023382,-1.392262 -0.295213,-0.412477 -0.569392,-1.023697 -0.573556,-1.278612 -0.0025,-0.15086 -0.08581,-0.416559 -0.185211,-0.590443 -0.268997,-0.470562 -0.272308,-12.469469 -0.0037,-13.215205 3.44903,-15.778372 27.517986,-12.739895 32.9361,-5.058443 -2.328093,4.562155 -3.083416,10.884032 -3.140821,15.491508 l -0.07323,6.133372 -13.278435,0.01846 c -8.592496,0.01194 -13.412322,-0.02629 -13.657822,-0.108373 z"
       style="fill:#ffffff;fill-opacity:1;stroke:none;stroke-width:0.01264613;stroke-linejoin:round;stroke-miterlimit:4;stroke-dasharray:none;stroke-opacity:1;paint-order:markers stroke fill" />
    <path
       sodipodi:nodetypes="ccccccccccccccccccscccccccccc"
       inkscape:connector-curvature="0"
       id="path4891"
       d="M 44.348971,15.123638 C 44.035978,15.065268 42.869372,14.955958 41.756514,14.880733 33.810982,14.355759 25.403858,12.368233 18.920255,9.328543 15.208495,7.993481 12.33647,5.616823 9.2453377,3.379775 8.5609013,2.888251 6.5342381,0.884915 5.9080029,0.080857 0.51478878,-7.343065 -0.315726,-14.439275 3.849739,-21.445426 c 0.4861442,-0.898147 0.9261045,-1.598314 1.5198798,-2.322722 2.1876128,-2.482894 3.8643545,-4.43089 6.6163582,-6.398636 0.504514,-0.413705 1.034301,-0.798498 1.565452,-1.109786 0.764578,0.452785 1.68381,1.277037 0.929393,1.896919 -0.693915,0.547952 -1.495265,1.291599 -2.298375,2.132873 -5.3331726,5.560764 -6.5899476,15.713137 -4.2700875,20.75662 0.5313406,1.101928 1.0364266,2.03753 1.1605953,2.149842 0.4902471,0.769843 1.0483512,1.385626 1.5702642,2.086611 0.467621,0.632364 2.704007,2.865323 3.546352,3.540918 0.346883,0.278212 0.659151,0.536953 0.693928,0.574974 1.260202,0.874215 2.35995,1.767941 3.509301,2.453493 0.539042,0.319779 1.065437,0.634888 1.169767,0.700244 0.10433,0.06536 0.445776,0.248964 0.758768,0.408015 0.312992,0.15905 0.59753,0.317691 0.632307,0.352533 1.398574,0.681413 2.563599,1.292878 3.857069,1.829174 0.208662,0.09223 0.550107,0.235858 0.758768,0.319167 7.885268,3.092847 16.506543,4.574518 24.318394,4.761287 2.575679,0.05837 3.633263,0.01131 6.432253,-0.286246 0.537455,-0.05714 0.693936,-0.02636 0.88523,0.174064 0.389381,0.390229 0.584,0.859389 0.810678,1.326093 0.210786,0.394842 0.133112,0.72909 -0.198761,0.855269 -0.830432,0.315728 -12.098055,0.623898 -13.468292,0.368358 z"
       style="fill:#ffffff;fill-opacity:1;stroke:none;stroke-width:0.01264613;stroke-linejoin:round;stroke-miterlimit:4;stroke-dasharray:none;stroke-opacity:1;paint-order:markers stroke fill" />
    <path
       sodipodi:nodetypes="sccccccccccccs"
       inkscape:connector-curvature="0"
       id="path4893"
       d="m 49.324377,-8.226249 c 0.04574,-7.437629 0.112749,-8.893707 0.436233,-9.479034 0.679416,-2.531181 2.475064,-4.888657 4.357496,-6.455228 1.470623,-0.965935 2.529604,-1.905835 4.330176,-2.184068 0.216235,0 0.464239,-0.07114 0.551124,-0.158078 0.204155,-0.204293 13.493539,-0.303776 14.562125,-0.109011 3.110628,0.831281 6.165048,2.202232 8.093521,4.961669 1.050427,1.547711 1.829392,3.249582 2.162265,5.106168 0.202226,1.149353 0.306903,13.072924 0.116442,13.263392 -0.07915,0.619063 -0.135958,1.358758 -0.432371,1.848734 -0.348389,0.47863 -0.853372,0.622002 -1.397585,0.821997 l -16.413345,0.03437 -16.413346,0.03436 z"
       style="fill:#ffffff;fill-opacity:1;stroke:none;stroke-width:0.01264613;stroke-linejoin:round;stroke-miterlimit:4;stroke-dasharray:none;stroke-opacity:1;paint-order:markers stroke fill" />
    <path
       sodipodi:nodetypes="cccccccccccccccccc"
       inkscape:connector-curvature="0"
       id="path4895"
       d="m 81.080386,8.456068 c -0.62366,-0.600965 -0.922168,-0.973561 -0.950731,-1.186689 -0.05326,-0.397566 0.02293,-0.607563 0.220511,-0.607563 2.967222,-1.450736 5.904768,-2.77349 8.520282,-4.930929 1.581915,-1.344856 3.152108,-2.783684 4.415106,-4.458822 2.588218,-3.102572 4.109821,-7.276465 4.11393,-11.033747 0,-1.591727 -0.04373,-2.244156 -0.158074,-2.358503 -1.185125,-4.925411 -3.177243,-8.430076 -7.434692,-12.058085 -2.662025,-2.627413 -6.242343,-3.812828 -9.25875,-5.808881 0.309577,-0.975763 0.881027,-1.241064 1.6171,-1.727275 4.839858,1.008988 10.02094,4.531984 13.458905,7.410811 4.725157,4.014961 5.355627,6.705855 6.770887,12.26604 0.60913,4.737454 -1.71842,10.867976 -5.080779,13.973563 -0.05743,0 -0.104355,0.05655 -0.104355,0.125676 -1.320987,1.433407 -2.914103,2.861423 -4.268063,4.105148 -1.355587,1.02188 -2.63525,1.937685 -4.015151,2.853873 -2.11941,1.182928 -6.671301,4.388318 -7.846192,3.435383 z"
       style="fill:#ffffff;fill-opacity:1;stroke:none;stroke-width:0.01264613;stroke-linejoin:round;stroke-miterlimit:4;stroke-dasharray:none;stroke-opacity:1;paint-order:markers stroke fill" />
    <path
       sodipodi:nodetypes="ccccccc"
       inkscape:connector-curvature="0"
       id="path4897"
       d="m 67.124058,-28.702317 c -6.381562,-0.01842 -11.552026,-4.406156 -11.514399,-8.798305 -0.01237,-1.66221 0.01338,-2.684811 0.04431,-4.460023 0.347359,-0.75723 6.042383,-1.58615 11.444978,-1.504009 3.907775,-0.08214 10.325707,0.869404 10.572481,1.546001 0.0397,0.147843 -0.02029,3.452415 -0.01985,4.495721 -0.170279,6.246021 -4.140609,8.702192 -10.527556,8.720615 z"
       style="fill:#ffffff;fill-opacity:1;stroke:none;stroke-width:0.01264613;stroke-linejoin:round;stroke-miterlimit:4;stroke-dasharray:none;stroke-opacity:1;paint-order:markers stroke fill" />
    <circle
       r="10.464673"
       cy="-43.211075"
       cx="32.969681"
       id="path4899"
       style="fill:#ffffff;fill-opacity:1;stroke:none;stroke-width:0.02660106;stroke-linejoin:round;stroke-miterlimit:4;stroke-dasharray:none;stroke-opacity:1;paint-order:markers stroke fill" />
    <g
       aria-label="BookingCare"
       transform="matrix(0.96416195,0,0,0.96416195,-444.61139,-723.51298)"
       style="font-style:normal;font-variant:normal;font-weight:normal;font-stretch:normal;font-size:18.66666603px;line-height:1.25;font-family:sans-serif;-inkscape-font-specification:'sans-serif, Normal';font-variant-ligatures:normal;font-variant-caps:normal;font-variant-numeric:normal;font-feature-settings:normal;text-align:center;letter-spacing:0px;word-spacing:0px;writing-mode:lr-tb;text-anchor:middle;fill:#ffffff;fill-opacity:1;stroke:none"
       id="flowRoot4527">
      <path
         d="m 462.41569,789.23828 v -13.27083 h 4.54818 q 2.2513,0 3.42708,0.90234 1.17578,0.90235 1.17578,2.6888 0,0.91146 -0.49218,1.64063 -0.49219,0.72917 -1.44011,1.13021 1.07552,0.29166 1.65886,1.10286 0.59244,0.80208 0.59244,1.93229 0,1.86849 -1.20312,2.8711 -1.19401,1.0026 -3.42708,1.0026 z m 2.30599,-5.98828 v 4.14713 h 2.5612 q 1.08463,0 1.69531,-0.53776 0.61068,-0.53776 0.61068,-1.49479 0,-2.06901 -2.11458,-2.11458 z m 0,-1.69531 h 2.26042 q 1.07552,0 1.67708,-0.48308 0.61068,-0.49218 0.61068,-1.38541 0,-0.98438 -0.56511,-1.42188 -0.55599,-0.4375 -1.74088,-0.4375 h -2.24219 z"
         style="font-style:normal;font-variant:normal;font-weight:500;font-stretch:normal;font-family:Roboto;-inkscape-font-specification:'Roboto Medium';fill:#ffffff;fill-opacity:1"
         id="path5389"
         inkscape:connector-curvature="0" />
      <path
         d="m 473.56283,784.21615 q 0,-1.44922 0.57422,-2.60678 0.57421,-1.16666 1.61328,-1.78645 1.03906,-0.62891 2.38802,-0.62891 1.99609,0 3.23567,1.28516 1.2487,1.28515 1.34896,3.40885 l 0.009,0.51953 q 0,1.45833 -0.56511,2.60677 -0.55599,1.14844 -1.60416,1.77735 -1.03907,0.6289 -2.40625,0.6289 -2.08724,0 -3.34506,-1.38541 -1.24869,-1.39454 -1.24869,-3.70964 z m 2.21484,0.1914 q 0,1.52214 0.62891,2.38802 0.6289,0.85677 1.75,0.85677 1.12109,0 1.74088,-0.875 0.62891,-0.875 0.62891,-2.56119 0,-1.4948 -0.64714,-2.3698 -0.63802,-0.875 -1.74088,-0.875 -1.08464,0 -1.72266,0.86589 -0.63802,0.85677 -0.63802,2.57031 z"
         style="font-style:normal;font-variant:normal;font-weight:500;font-stretch:normal;font-family:Roboto;-inkscape-font-specification:'Roboto Medium';fill:#ffffff;fill-opacity:1"
         id="path5391"
         inkscape:connector-curvature="0" />
      <path
         d="m 484.20866,784.21615 q 0,-1.44922 0.57422,-2.60678 0.57422,-1.16666 1.61328,-1.78645 1.03906,-0.62891 2.38802,-0.62891 1.9961,0 3.23568,1.28516 1.2487,1.28515 1.34896,3.40885 l 0.009,0.51953 q 0,1.45833 -0.5651,2.60677 -0.55599,1.14844 -1.60417,1.77735 -1.03906,0.6289 -2.40625,0.6289 -2.08724,0 -3.34505,-1.38541 -1.2487,-1.39454 -1.2487,-3.70964 z m 2.21484,0.1914 q 0,1.52214 0.62891,2.38802 0.62891,0.85677 1.75,0.85677 1.12109,0 1.74089,-0.875 0.6289,-0.875 0.6289,-2.56119 0,-1.4948 -0.64713,-2.3698 -0.63802,-0.875 -1.74089,-0.875 -1.08463,0 -1.72265,0.86589 -0.63803,0.85677 -0.63803,2.57031 z"
         style="font-style:normal;font-variant:normal;font-weight:500;font-stretch:normal;font-family:Roboto;-inkscape-font-specification:'Roboto Medium';fill:#ffffff;fill-opacity:1"
         id="path5393"
         inkscape:connector-curvature="0" />
      <path
         d="m 498.47298,785.00911 -0.98437,1.01172 v 3.21745 h -2.21485 v -14 h 2.21485 v 8.07552 l 0.69271,-0.86588 2.72526,-3.07162 h 2.66145 l -3.66406,4.11068 4.05599,5.7513 h -2.5612 z"
         style="font-style:normal;font-variant:normal;font-weight:500;font-stretch:normal;font-family:Roboto;-inkscape-font-specification:'Roboto Medium';fill:#ffffff;fill-opacity:1"
         id="path5395"
         inkscape:connector-curvature="0" />
      <path
         d="m 507.3597,789.23828 h -2.21484 v -9.86198 h 2.21484 z m -2.35156,-12.42318 q 0,-0.51041 0.31901,-0.84765 0.32812,-0.33724 0.92969,-0.33724 0.60156,0 0.92968,0.33724 0.32813,0.33724 0.32813,0.84765 0,0.50131 -0.32813,0.83855 -0.32812,0.32812 -0.92968,0.32812 -0.60157,0 -0.92969,-0.32812 -0.31901,-0.33724 -0.31901,-0.83855 z"
         style="font-style:normal;font-variant:normal;font-weight:500;font-stretch:normal;font-family:Roboto;-inkscape-font-specification:'Roboto Medium';fill:#ffffff;fill-opacity:1"
         id="path5397"
         inkscape:connector-curvature="0" />
      <path
         d="m 511.83496,779.3763 0.0638,1.13932 q 1.09375,-1.32161 2.8711,-1.32161 3.08073,0 3.13541,3.52734 v 6.51693 h -2.21484 v -6.38932 q 0,-0.9388 -0.41015,-1.38542 -0.40105,-0.45573 -1.32162,-0.45573 -1.33984,0 -1.99609,1.21224 v 7.01823 h -2.21485 v -9.86198 z"
         style="font-style:normal;font-variant:normal;font-weight:500;font-stretch:normal;font-family:Roboto;-inkscape-font-specification:'Roboto Medium';fill:#ffffff;fill-opacity:1"
         id="path5399"
         inkscape:connector-curvature="0" />
      <path
         d="m 519.78288,784.23437 q 0,-2.29687 1.07552,-3.66406 1.08464,-1.3763 2.87109,-1.3763 1.6862,0 2.65235,1.17578 l 0.10026,-0.99349 h 1.99609 v 9.5612 q 0,1.94141 -1.21224,3.0625 -1.20312,1.12109 -3.2539,1.12109 -1.08464,0 -2.1237,-0.45573 -1.02995,-0.44661 -1.56771,-1.17578 l 1.04818,-1.33073 q 1.02083,1.21224 2.51562,1.21224 1.10287,0 1.74089,-0.60156 0.63802,-0.59245 0.63802,-1.75 v -0.66536 q -0.95703,1.0664 -2.55209,1.0664 -1.73177,0 -2.83463,-1.3763 -1.09375,-1.3763 -1.09375,-3.8099 z m 2.20573,0.19141 q 0,1.48568 0.60156,2.34245 0.61068,0.84765 1.6862,0.84765 1.33984,0 1.98698,-1.14843 v -4.33854 q -0.62891,-1.1211 -1.96875,-1.1211 -1.09375,0 -1.70443,0.86589 -0.60156,0.86588 -0.60156,2.55208 z"
         style="font-style:normal;font-variant:normal;font-weight:500;font-stretch:normal;font-family:Roboto;-inkscape-font-specification:'Roboto Medium';fill:#ffffff;fill-opacity:1"
         id="path5401"
         inkscape:connector-curvature="0" />
      <path
         d="m 541.08366,784.91797 q -0.20052,2.1237 -1.56771,3.31771 -1.36719,1.18489 -3.63672,1.18489 -1.58594,0 -2.79818,-0.74739 -1.20312,-0.75651 -1.85937,-2.14193 -0.65625,-1.38542 -0.68359,-3.21745 v -1.23958 q 0,-1.87761 0.66536,-3.3086 0.66536,-1.43098 1.90495,-2.20572 1.2487,-0.77474 2.88021,-0.77474 2.19661,0 3.53645,1.19401 1.33985,1.19401 1.5586,3.37239 h -2.29688 q -0.16406,-1.43099 -0.83854,-2.05989 -0.66536,-0.63802 -1.95963,-0.63802 -1.50391,0 -2.31511,1.10286 -0.80208,1.09375 -0.82031,3.21745 v 1.17578 q 0,2.15104 0.76562,3.28125 0.77474,1.13021 2.26042,1.13021 1.35807,0 2.04167,-0.61068 0.68359,-0.61068 0.86588,-2.03255 z"
         style="font-style:normal;font-variant:normal;font-weight:500;font-stretch:normal;font-family:Roboto;-inkscape-font-specification:'Roboto Medium';fill:#ffffff;fill-opacity:1"
         id="path5403"
         inkscape:connector-curvature="0" />
      <path
         d="m 548.81283,789.23828 q -0.14584,-0.28255 -0.25521,-0.92057 -1.05729,1.10286 -2.58854,1.10286 -1.48568,0 -2.42448,-0.84765 -0.9388,-0.84766 -0.9388,-2.09636 0,-1.57682 1.16666,-2.41536 1.17578,-0.84766 3.35417,-0.84766 h 1.35807 v -0.64713 q 0,-0.76563 -0.42838,-1.22136 -0.42839,-0.46484 -1.30339,-0.46484 -0.75651,0 -1.23958,0.38281 -0.48307,0.3737 -0.48307,0.95703 h -2.21485 q 0,-0.8112 0.53776,-1.51302 0.53776,-0.71094 1.45834,-1.11198 0.92968,-0.40104 2.06901,-0.40104 1.73177,0 2.76171,0.875 1.02995,0.86589 1.0573,2.44271 v 4.44791 q 0,1.33073 0.37369,2.1237 v 0.15495 z m -2.4336,-1.59505 q 0.65625,0 1.23047,-0.31901 0.58334,-0.31901 0.875,-0.85677 v -1.85938 h -1.19401 q -1.23047,0 -1.85026,0.42839 -0.61979,0.42838 -0.61979,1.21224 0,0.63802 0.41927,1.02083 0.42839,0.3737 1.13932,0.3737 z"
         style="font-style:normal;font-variant:normal;font-weight:500;font-stretch:normal;font-family:Roboto;-inkscape-font-specification:'Roboto Medium';fill:#ffffff;fill-opacity:1"
         id="path5405"
         inkscape:connector-curvature="0" />
      <path
         d="m 558.18261,781.39974 q -0.4375,-0.0729 -0.90234,-0.0729 -1.52214,0 -2.05078,1.16667 v 6.74479 h -2.21484 v -9.86198 h 2.11458 l 0.0547,1.10287 q 0.80208,-1.28516 2.22395,-1.28516 0.47396,0 0.78386,0.1276 z"
         style="font-style:normal;font-variant:normal;font-weight:500;font-stretch:normal;font-family:Roboto;-inkscape-font-specification:'Roboto Medium';fill:#ffffff;fill-opacity:1"
         id="path5407"
         inkscape:connector-curvature="0" />
      <path
         d="m 563.74251,789.42057 q -2.10547,0 -3.41797,-1.32161 -1.30338,-1.33073 -1.30338,-3.53646 v -0.27344 q 0,-1.47656 0.5651,-2.63411 0.57422,-1.16667 1.60417,-1.8138 1.02995,-0.64714 2.29687,-0.64714 2.01433,0 3.10808,1.28516 1.10286,1.28515 1.10286,3.63672 v 0.89322 h -6.44401 q 0.10026,1.22136 0.8112,1.9323 0.72005,0.71093 1.80469,0.71093 1.52213,0 2.47916,-1.23047 l 1.19401,1.13933 q -0.59244,0.88411 -1.58593,1.3763 -0.98438,0.48307 -2.21485,0.48307 z m -0.26432,-8.44922 q -0.91146,0 -1.47656,0.63802 -0.55599,0.63803 -0.71094,1.77735 h 4.22005 v -0.16406 q -0.0729,-1.11198 -0.59245,-1.67709 -0.51953,-0.57422 -1.4401,-0.57422 z"
         style="font-style:normal;font-variant:normal;font-weight:500;font-stretch:normal;font-family:Roboto;-inkscape-font-specification:'Roboto Medium';fill:#ffffff;fill-opacity:1"
         id="path5409"
         inkscape:connector-curvature="0" />
    </g>
  </g>
</svg>
